
        <svg xmlns="http://www.w3.org/2000/svg" xmlns:xlink="http://www.w3.org/1999/xlink" version="1.1" width="3187.5" 
        height="744.4654908136412" viewBox="0 0 3187.5 744.4654908136412">
			<rect fill="#eeeeee" width="3187.5" height="744.4654908136412"/>
			<g transform="scale(9.375) translate(10, 10)">
				<defs id="SvgjsDefs1484"></defs><g id="SvgjsG1485" featureKey="odWo6G-0" transform="matrix(1.113744202683227,0,0,1.113744202683227,-5.68900410422964,-25.982216137853715)" fill="#222831"><path xmlns="http://www.w3.org/2000/svg" d="M80.825,76.377c0,0-0.635,0.004-1.825,0.015c-0.298,0.001-0.629,0.003-0.995,0.005c-0.365-0.033-0.765-0.069-1.197-0.107  c-0.435-0.042-0.902-0.087-1.402-0.136c-0.503-0.046-1.013-0.193-1.565-0.296c-2.216-0.395-4.852-1.277-7.642-2.777  c-2.787-1.5-5.724-3.695-8.245-6.746c-2.53-3.024-4.666-6.889-5.785-11.338c-0.176-0.548-0.271-1.116-0.366-1.688  c-0.1-0.574-0.199-1.15-0.3-1.73c-0.077-0.583-0.097-1.176-0.146-1.77l-0.063-0.896l-0.031-0.45l-0.004-0.055  c-0.003-0.002,0.004-0.189,0.002-0.135l0.003-0.107l0.007-0.214c0.016-0.571,0.032-1.146,0.048-1.724  c0.032-0.592,0.154-1.261,0.233-1.894c0.069-0.655,0.221-1.265,0.376-1.877c0.155-0.614,0.277-1.24,0.513-1.836  c0.764-2.442,1.999-4.779,3.577-6.891c1.575-2.116,3.519-4.007,5.758-5.523c2.24-1.514,4.77-2.633,7.416-3.324l0.995-0.259  c0.332-0.082,0.676-0.116,1.014-0.176c0.679-0.087,1.351-0.258,2.038-0.269l1.029-0.057l0.515-0.027l0.258-0.013l0.127-0.007  c0.065,0-0.054-0.005,0.163,0l0.057,0.002c0.643,0.036,1.248,0.044,1.919,0.102c0.722,0.109,1.474,0.197,2.166,0.356  c0.676,0.19,1.368,0.32,2.024,0.569c1.323,0.46,2.612,1.029,3.801,1.759c2.396,1.431,4.47,3.364,6.056,5.612  c1.598,2.243,2.688,4.817,3.19,7.464c0.091,0.667,0.184,1.33,0.276,1.991l0.039,0.999l0.018,0.496l0.009,0.249l0.005,0.124  l0.002,0.063c0,0.059,0.005-0.046,0,0.148l-0.059,0.901c-0.018,0.299-0.029,0.586-0.097,0.958c-0.104,0.703-0.215,1.404-0.408,2.026  c-0.316,1.295-0.872,2.501-1.472,3.653c-0.667,1.116-1.395,2.188-2.298,3.086c-0.854,0.941-1.859,1.706-2.873,2.407  c-1.054,0.645-2.135,1.218-3.273,1.602c-2.245,0.805-4.66,1.063-6.805,0.832c-1.198-0.181-2.29-0.425-3.29-0.868  c-0.517-0.182-0.98-0.468-1.458-0.704c-0.449-0.286-0.909-0.55-1.317-0.876c-1.649-1.269-2.949-2.84-3.733-4.546  c-0.797-1.7-1.157-3.467-1.174-5.107c-0.029-1.625,0.319-3.222,0.962-4.48c0.631-1.273,1.474-2.284,2.343-3.039  c0.872-0.761,1.775-1.276,2.602-1.59c0.4-0.188,0.807-0.27,1.156-0.387c0.365-0.08,0.695-0.144,0.99-0.196  c0.6-0.065,1.055-0.099,1.364-0.082c0.308,0.002,0.467,0.004,0.467,0.004s-0.157,0.018-0.464,0.05  c-0.305,0.018-0.753,0.104-1.326,0.234c-0.281,0.084-0.594,0.184-0.933,0.3c-0.326,0.154-0.698,0.272-1.059,0.495  c-0.742,0.391-1.534,0.958-2.268,1.73c-1.47,1.521-2.665,3.995-2.357,6.889c0.23,2.867,1.817,6.012,4.715,7.917  c0.351,0.247,0.745,0.437,1.123,0.65c0.404,0.163,0.789,0.378,1.22,0.494c0.832,0.319,1.739,0.437,2.567,0.53  c1.938,0.088,3.822-0.205,5.649-0.946c0.915-0.351,1.768-0.863,2.599-1.416c0.791-0.61,1.575-1.255,2.224-2.042  c0.688-0.753,1.227-1.633,1.742-2.523c0.444-0.93,0.865-1.889,1.079-2.915c0.148-0.518,0.196-1,0.268-1.482  c0.048-0.219,0.054-0.531,0.063-0.834l0.034-0.901c-0.004,0.158-0.003,0.014-0.005,0.035l-0.004-0.05l-0.008-0.103l-0.014-0.204  l-0.027-0.409l-0.052-0.818c-0.09-0.54-0.18-1.082-0.27-1.624c-0.48-2.145-1.405-4.208-2.706-6.024  c-1.305-1.813-3.003-3.364-4.948-4.503c-0.966-0.584-2.011-1.029-3.078-1.392c-0.528-0.201-1.09-0.289-1.634-0.444  c-0.541-0.122-1.055-0.16-1.581-0.262c-0.589-0.058-1.254-0.076-1.876-0.116l-1.644,0.077c-0.583-0.003-1.147,0.149-1.723,0.212  c-0.285,0.049-0.575,0.069-0.854,0.138l-0.84,0.213c-2.235,0.563-4.38,1.483-6.288,2.749c-3.775,2.561-6.767,6.242-8.19,10.408  c-0.222,0.505-0.334,1.041-0.483,1.565c-0.149,0.526-0.297,1.05-0.358,1.559c-0.077,0.521-0.193,0.995-0.25,1.553  c-0.042,0.576-0.084,1.15-0.125,1.72l-0.016,0.214l-0.008,0.107c-0.003,0.089-0.001-0.062,0-0.027l0.002,0.05l0.012,0.402  l0.022,0.804c0.022,0.534,0.011,1.067,0.058,1.594c0.067,0.523,0.135,1.046,0.202,1.563c0.062,0.52,0.122,1.036,0.261,1.535  c0.856,4.041,2.563,7.673,4.722,10.616c2.167,2.942,4.735,5.217,7.258,6.845c2.535,1.609,4.972,2.722,7.079,3.304  c0.525,0.149,1.016,0.344,1.493,0.433c0.476,0.101,0.922,0.195,1.337,0.282c0.42,0.088,0.809,0.169,1.165,0.243  c0.362,0.04,0.694,0.075,0.989,0.107C80.195,76.309,80.825,76.377,80.825,76.377z"></path><path xmlns="http://www.w3.org/2000/svg" d="M34.445,47.042c0,0,0.098,0.725,0.206,1.992c0.025,0.316,0.054,0.667,0.085,1.05c-0.002,0.386-0.028,0.806-0.046,1.259  c-0.021,0.455-0.042,0.939-0.065,1.452c-0.012,0.519-0.15,1.027-0.229,1.582c-0.094,0.553-0.193,1.129-0.295,1.724  c-0.167,0.582-0.341,1.182-0.52,1.799c-0.093,0.311-0.188,0.624-0.283,0.941c-0.107,0.313-0.248,0.616-0.375,0.932  c-0.267,0.625-0.54,1.264-0.818,1.915c-0.695,1.224-1.344,2.551-2.266,3.725c-0.818,1.254-1.882,2.339-2.89,3.471  c-1.13,1.008-2.216,2.072-3.468,2.89c-1.172,0.926-2.503,1.569-3.726,2.27c-0.649,0.278-1.289,0.551-1.914,0.818  c-0.315,0.125-0.62,0.268-0.933,0.375c-0.316,0.096-0.631,0.189-0.939,0.283c-0.619,0.178-1.219,0.352-1.8,0.52  c-0.596,0.103-1.172,0.201-1.724,0.295c-0.554,0.076-1.068,0.215-1.58,0.228c-0.507,0.022-0.988,0.043-1.439,0.063  c-0.449,0.015-0.867,0.042-1.254,0.045c-0.389-0.031-0.744-0.06-1.066-0.085c-1.282-0.108-1.998-0.208-1.998-0.208  s0.723-0.171,1.957-0.405c0.307-0.058,0.646-0.123,1.017-0.193c0.364-0.112,0.757-0.208,1.176-0.326  c0.837-0.223,1.773-0.458,2.759-0.841c0.492-0.177,1.006-0.358,1.537-0.548c0.512-0.232,1.042-0.473,1.587-0.72  c0.271-0.119,0.546-0.24,0.825-0.362c0.274-0.13,0.539-0.294,0.813-0.442c0.545-0.295,1.102-0.599,1.668-0.906  c1.061-0.737,2.216-1.392,3.246-2.265c1.094-0.788,2.059-1.757,3.071-2.67c0.914-1.013,1.886-1.978,2.672-3.071  c0.878-1.027,1.528-2.186,2.268-3.245c0.308-0.566,0.61-1.122,0.907-1.667c0.147-0.274,0.312-0.539,0.442-0.814  c0.122-0.277,0.243-0.554,0.362-0.824c0.246-0.546,0.487-1.075,0.72-1.588c0.188-0.531,0.371-1.045,0.547-1.537  c0.384-0.99,0.616-1.91,0.839-2.742c0.115-0.414,0.213-0.807,0.326-1.17c0.069-0.376,0.135-0.723,0.192-1.035  C34.275,47.755,34.445,47.042,34.445,47.042z"></path><path xmlns="http://www.w3.org/2000/svg" d="M37.996,50.599c0,0-0.102-0.667-0.215-1.833c-0.026-0.292-0.057-0.614-0.09-0.965c-0.001-0.356,0.02-0.744,0.031-1.161  c0.015-0.42,0.031-0.869,0.048-1.34c0.007-0.48,0.134-0.949,0.2-1.461c0.084-0.511,0.171-1.042,0.262-1.592  c0.151-0.537,0.308-1.091,0.469-1.663c0.084-0.285,0.17-0.575,0.257-0.869c0.099-0.289,0.228-0.57,0.342-0.861  c0.245-0.578,0.494-1.169,0.749-1.77c0.639-1.132,1.234-2.359,2.084-3.445c0.752-1.157,1.732-2.161,2.663-3.205  c1.045-0.931,2.047-1.913,3.204-2.667c1.084-0.852,2.313-1.443,3.445-2.085c0.601-0.255,1.188-0.515,1.769-0.749  c0.292-0.115,0.572-0.244,0.861-0.342c0.294-0.088,0.583-0.173,0.869-0.258c0.57-0.161,1.126-0.317,1.663-0.469  c0.55-0.09,1.082-0.177,1.592-0.261c0.511-0.067,0.986-0.191,1.459-0.199c0.467-0.016,0.909-0.031,1.326-0.045  c0.415-0.012,0.8-0.033,1.156-0.03c0.357,0.032,0.686,0.062,0.982,0.089c1.18,0.113,1.838,0.215,1.838,0.215  s-0.664,0.169-1.798,0.399c-0.281,0.057-0.593,0.12-0.932,0.188c-0.334,0.107-0.695,0.2-1.077,0.31  c-0.767,0.214-1.624,0.438-2.526,0.797c-0.45,0.164-0.92,0.336-1.405,0.514c-0.468,0.216-0.951,0.439-1.449,0.668  c-0.248,0.111-0.5,0.223-0.754,0.336c-0.251,0.121-0.493,0.272-0.743,0.409c-0.497,0.274-1.006,0.553-1.522,0.838  c-0.969,0.679-2.023,1.28-2.964,2.082c-0.999,0.723-1.882,1.609-2.808,2.445c-0.836,0.926-1.725,1.808-2.447,2.807  c-0.805,0.938-1.402,1.996-2.085,2.962c-0.284,0.517-0.563,1.026-0.837,1.523c-0.137,0.25-0.288,0.491-0.409,0.743  c-0.114,0.255-0.226,0.506-0.337,0.755c-0.23,0.498-0.453,0.981-0.67,1.45c-0.177,0.485-0.348,0.955-0.512,1.406  c-0.359,0.906-0.582,1.748-0.793,2.507c-0.111,0.381-0.203,0.74-0.311,1.074c-0.07,0.345-0.133,0.663-0.189,0.95  C38.162,49.945,37.996,50.599,37.996,50.599z"></path></g><g id="SvgjsG1486" featureKey="VGK2BT-0" transform="matrix(2.261420889778851,0,0,2.261420889778851,117.31723155892631,-0.5647238820828555)" fill="#222831"><path d="M6.4744 6.441000000000001 c2.9492 0 4.6442 2.4915 4.6442 4.5424 c0 2.1695 -1.6949 4.5763 -4.6441 4.5763 l-3.3729 0 l0 4.1525 c0 0.18644 -0.10153 0.28797 -0.27119 0.28797 l-1.3729 0 c-0.16949 0 -0.27119 -0.10153 -0.27119 -0.28797 l0 -13 c0 -0.15254 0.10169 -0.27119 0.27119 -0.27119 l5.0168 0 z M6.3222 13.712 c1.8644 0 2.8983 -1.3729 2.8983 -2.7288 c0 -1.339 -1.0339 -2.6949 -2.8983 -2.6949 l-3.2203 0 l0 5.4237 l3.2203 0 z M16.067647457627118 20.11864 c2.3729 0 4.339 -1.8812 4.339 -4.3049 c0 -2.4746 -1.9661 -4.322 -4.339 -4.322 s-4.339 1.8475 -4.339 4.322 c0 2.4237 1.9661 4.3049 4.339 4.3049 z M16.067647457627118 18.39 c-1.4576 0 -2.5424 -1.2034 -2.5424 -2.5593 c0 -1.4068 1.0847 -2.6102 2.5424 -2.6102 s2.5424 1.2034 2.5424 2.6102 c0 1.3559 -1.0847 2.5593 -2.5424 2.5593 z M30.05064576271186 19.44085 c0.22034 0.23729 0.11848 0.54271 -0.20356 0.54271 l-1.3729 0 c-0.15254 0 -0.23729 -0.033898 -0.33898 -0.15254 l-4.0339 -4.0339 l0 3.9322 c0 0.15238 -0.11864 0.27102 -0.27119 0.27102 l-1.2881 0 c-0.16949 0 -0.28814 -0.11864 -0.28814 -0.27102 l0 -11.848 c0 -0.57627 -0.084746 -0.83051 -0.13559 -1.0847 c-0.033732 -0.18661 0.017115 -0.3561 0.18661 -0.3561 l1.1525 0 c0.38983 0 0.64407 0.25424 0.64407 0.61017 l0 8.2881 l3.4068 -3.5932 c0.10169 -0.10169 0.20339 -0.13559 0.32203 -0.13559 l1.3559 0 c0.27119 0 0.42373 0.33898 0.22034 0.55932 l-3.339 3.4068 z M38.38982372881355 16.4915 c0.61 0 1.0336 -0.30508 1.0336 -1.0169 c0 -2.0847 -1.6102 -3.9831 -4.0847 -3.9831 c-2.3559 0 -4.2034 1.8644 -4.2034 4.3051 c0 2.5422 1.9322 4.288 4.3051 4.288 c1.5085 0 2.6949 -0.61017 3.4237 -1.5932 c0.10186 -0.13559 0.067963 -0.23729 -0.033568 -0.37288 l-0.32203 -0.42373 c-0.13559 -0.16933 -0.27119 -0.15254 -0.44085 -0.050847 c-0.5422 0.44068 -1.4405 0.81373 -2.4236 0.81373 c-1.3898 0 -2.3729 -0.84746 -2.5593 -1.9661 l5.3051 0 z M33.084623728813554 15.050799999999999 c0.067797 -0.81356 0.83051 -1.8644 2.2203 -1.8644 c1.4068 0 2.1356 1.0678 2.1864 1.8644 l-4.4068 0 z M46.99984745762711 12.034099999999999 c0.18644 0.11864 0.23729 0.22017 0.11848 0.40661 l-0.69475 1.0169 c-0.084746 0.11864 -0.20339 0.15254 -0.35593 0.11864 c-0.35593 -0.16949 -0.66102 -0.32203 -1.2203 -0.32203 s-1.4407 0.23729 -1.9153 1.2881 l0 5.1866 c0 0.15238 -0.10169 0.27102 -0.25424 0.27102 l-1.339 0 c-0.15254 0 -0.25424 -0.11864 -0.25424 -0.27102 l0 -7.8476 c0 -0.15238 0.11864 -0.27119 0.25424 -0.27119 l0.9322 0 c0.40678 0 0.66102 0.42373 0.66102 0.72881 l0 0.11881 c0.59322 -0.54237 1.3051 -0.91525 2.2373 -0.91525 c0.86441 0 1.5085 0.27119 1.8305 0.49153 z M61.54218983050847 6.441000000000001 c0.16966 0 0.28847 0.11864 0.28847 0.27119 l0 1.3051 c0 0.16949 -0.10169 0.27119 -0.28831 0.27119 l-6.5763 0 l0 4.1356 l3.7458 0 c0.16949 0 0.28814 0.11864 0.28814 0.28814 l0 1.2712 c0 0.18644 -0.11864 0.28814 -0.28814 0.28814 l-3.7458 0 l0 5.4407 c0 0.18644 -0.10169 0.28797 -0.25424 0.28797 l-1.0169 0 c-0.40678 0 -0.64407 -0.28797 -0.64407 -0.6778 l0 -12.61 c0 -0.15254 0.10169 -0.27119 0.27119 -0.27119 l8.2202 0 z M65.11868644067796 6.441000000000001 l-1.3053 0 c-0.16933 0 -0.27119 0.11864 -0.27119 0.27119 l0 12.61 c0 0.38983 0.23746 0.6778 0.66119 0.6778 l0.91525 0 c0.16949 0 0.27119 -0.10153 0.27119 -0.28797 l0 -13 c0 -0.15254 -0.11864 -0.27119 -0.27119 -0.27119 z M71.61002033898305 20.11864 c2.3729 0 4.339 -1.8812 4.339 -4.3049 c0 -2.4746 -1.9661 -4.322 -4.339 -4.322 s-4.339 1.8475 -4.339 4.322 c0 2.4237 1.9661 4.3049 4.339 4.3049 z M71.61002033898305 18.39 c-1.4576 0 -2.5424 -1.2034 -2.5424 -2.5593 c0 -1.4068 1.0847 -2.6102 2.5424 -2.6102 s2.5424 1.2034 2.5424 2.6102 c0 1.3559 -1.0847 2.5593 -2.5424 2.5593 z M89.39013559322034 11.6102 c0.20339 0 0.28831 0.11881 0.20356 0.30525 l-3.1695 7.8983 c-0.033898 0.10169 -0.15254 0.18627 -0.27119 0.18627 l-0.20339 0 c-0.13559 0 -0.23729 -0.08458 -0.30508 -0.18627 l-2.4746 -5.1186 l-2.4746 5.1186 c-0.050847 0.10169 -0.16949 0.18627 -0.28814 0.18627 l-0.22034 0 c-0.11864 0 -0.22034 -0.08458 -0.27119 -0.18627 l-3.1695 -7.8983 c-0.067797 -0.18644 0.016784 -0.30525 0.20339 -0.30525 l1.4066 0 c0.13559 0 0.25441 0.084746 0.30525 0.18661 l1.8981 5.1695 l2.1525 -5.0847 c0.050847 -0.11864 0.15271 -0.18644 0.3222 -0.18644 l0.28814 0 c0.16949 0 0.25424 0.067797 0.30508 0.18644 l2.1695 5.0847 l1.8814 -5.1695 c0.050847 -0.10186 0.15238 -0.18661 0.30492 -0.18661 l1.4068 0 z"></path></g>
			</g>
		</svg>
	