<?xml version="1.0" encoding="UTF-8"?>
<svg id="Layer_2" data-name="Layer 2" xmlns="http://www.w3.org/2000/svg" xmlns:xlink="http://www.w3.org/1999/xlink" viewBox="0 0 221.84 221.84">
  <defs>
    <style>
      .cls-1 {
        fill: url(#linear-gradient-5);
      }

      .cls-1, .cls-2, .cls-3, .cls-4, .cls-5 {
        stroke: #fff;
        stroke-miterlimit: 10;
      }

      .cls-1, .cls-2, .cls-3, .cls-5 {
        stroke-width: 2.8px;
      }

      .cls-6 {
        fill: url(#linear-gradient-12);
      }

      .cls-6, .cls-7, .cls-8, .cls-9, .cls-10, .cls-11, .cls-12, .cls-13, .cls-14, .cls-15, .cls-16, .cls-17 {
        stroke-width: 0px;
      }

      .cls-18 {
        clip-path: url(#clippath-11);
      }

      .cls-7 {
        fill: url(#linear-gradient);
      }

      .cls-8, .cls-19 {
        fill: #003d7f;
      }

      .cls-2 {
        fill: url(#linear-gradient-6);
      }

      .cls-20 {
        clip-path: url(#clippath-2);
      }

      .cls-21 {
        clip-path: url(#clippath-13);
      }

      .cls-3 {
        fill: url(#linear-gradient-7);
      }

      .cls-22 {
        clip-path: url(#clippath-6);
      }

      .cls-9 {
        fill: url(#linear-gradient-11);
      }

      .cls-10, .cls-4, .cls-5 {
        fill: none;
      }

      .cls-23 {
        clip-path: url(#clippath-7);
      }

      .cls-24 {
        clip-path: url(#clippath-1);
      }

      .cls-25 {
        clip-path: url(#clippath-4);
      }

      .cls-26 {
        clip-path: url(#clippath-12);
      }

      .cls-11 {
        fill: #fff;
      }

      .cls-12 {
        fill: url(#linear-gradient-2);
      }

      .cls-4 {
        stroke-width: 2.62px;
      }

      .cls-13 {
        fill: url(#linear-gradient-3);
      }

      .cls-27 {
        clip-path: url(#clippath-9);
      }

      .cls-28 {
        clip-path: url(#clippath);
      }

      .cls-14 {
        fill: url(#linear-gradient-9);
      }

      .cls-29 {
        clip-path: url(#clippath-3);
      }

      .cls-15 {
        fill: url(#linear-gradient-8);
      }

      .cls-30 {
        clip-path: url(#clippath-8);
      }

      .cls-31 {
        clip-path: url(#clippath-5);
      }

      .cls-16 {
        fill: url(#linear-gradient-10);
      }

      .cls-32 {
        clip-path: url(#clippath-10);
      }

      .cls-17 {
        fill: url(#linear-gradient-4);
      }
    </style>
    <clipPath id="clippath">
      <ellipse class="cls-10" cx="113.89" cy="66.04" rx="64.17" ry="31.66"/>
    </clipPath>
    <linearGradient id="linear-gradient" x1="294.1" y1="176.67" x2="430.34" y2="176.67" gradientTransform="translate(-249.78 -74.65)" gradientUnits="userSpaceOnUse">
      <stop offset=".09" stop-color="#50f9ff"/>
      <stop offset=".17" stop-color="#47e2f0"/>
      <stop offset=".45" stop-color="#2996bc"/>
      <stop offset=".68" stop-color="#125d96"/>
      <stop offset=".86" stop-color="#053b7e"/>
      <stop offset=".95" stop-color="#002e76"/>
    </linearGradient>
    <clipPath id="clippath-1">
      <ellipse class="cls-8" cx="113.69" cy="63.17" rx="46.25" ry="20.28"/>
    </clipPath>
    <clipPath id="clippath-2">
      <path class="cls-10" d="M113.69,134.27c-29.99,0-55.17-8.49-62.2-19.96-1.28,2.08-1.96,4.27-1.96,6.51,0,14.62,28.73,26.48,64.17,26.48s64.17-11.85,64.17-26.48c0-2.25-.68-4.43-1.96-6.51-7.03,11.47-32.21,19.96-62.2,19.96Z"/>
    </clipPath>
    <linearGradient id="linear-gradient-2" x1="292.56" y1="180.96" x2="426.62" y2="180.96" gradientTransform="translate(-251.44 -81.56)" xlink:href="#linear-gradient"/>
    <clipPath id="clippath-3">
      <path class="cls-10" d="M113.69,117.65c-29.81,0-54.86-8.92-62.07-21.01-1.36,2.28-2.09,4.68-2.09,7.15,0,15.55,28.73,28.16,64.17,28.16s64.17-12.61,64.17-28.16c0-2.47-.73-4.87-2.09-7.15-7.21,12.09-32.27,21.01-62.07,21.01Z"/>
    </clipPath>
    <linearGradient id="linear-gradient-3" x1="290.88" y1="180.96" x2="430.77" y2="180.96" gradientTransform="translate(-252.67 -80.33)" xlink:href="#linear-gradient"/>
    <clipPath id="clippath-4">
      <path class="cls-10" d="M113.69,100.36c-29.99,0-55.17-9.54-62.2-22.44-1.28,2.34-1.96,4.79-1.96,7.32,0,16.44,28.73,29.76,64.17,29.76s64.17-13.32,64.17-29.76c0-2.53-.68-4.98-1.96-7.32-7.03,12.9-32.21,22.44-62.2,22.44Z"/>
    </clipPath>
    <linearGradient id="linear-gradient-4" x1="289.34" y1="180.96" x2="435.54" y2="180.96" gradientTransform="translate(-254.29 -78.72)" xlink:href="#linear-gradient"/>
    <clipPath id="clippath-5">
      <path class="cls-5" d="M65.85,153.07c-3.33,0-6.7-.46-10.14-1.48-12.02-3.57-21.8-13.4-29.06-29.21-2.01-4.37-.09-9.54,4.28-11.55,4.37-2.01,9.54-.09,11.55,4.28,5.08,11.05,11.2,17.71,18.2,19.78,10.97,3.26,23.4-4.86,37.79-14.25,17.37-11.33,37.05-24.17,60.82-20.33,12.29,1.99,23.77,8.19,34.12,18.42,3.42,3.38,3.45,8.9.07,12.32-3.38,3.42-8.9,3.45-12.32.07-7.72-7.64-16.01-12.22-24.65-13.61-17.11-2.76-33.08,7.65-48.52,17.73-13.48,8.79-27.33,17.84-42.14,17.84Z"/>
    </clipPath>
    <linearGradient id="linear-gradient-5" x1="340.04" y1="178.19" x2="435.74" y2="178.19" gradientTransform="translate(-276.97 -50.5)" xlink:href="#linear-gradient"/>
    <clipPath id="clippath-6">
      <path class="cls-5" d="M65.85,170.23c-3.33,0-6.7-.46-10.14-1.48-12.02-3.57-21.8-13.4-29.06-29.21-2.01-4.37-.09-9.54,4.28-11.55,4.37-2.01,9.54-.09,11.55,4.28,5.08,11.05,11.2,17.71,18.2,19.78,10.97,3.26,23.4-4.86,37.79-14.25,17.37-11.33,37.05-24.17,60.82-20.33,12.29,1.99,23.77,8.19,34.12,18.42,3.42,3.38,3.45,8.9.07,12.32-3.38,3.42-8.9,3.45-12.32.07-7.72-7.64-16.01-12.22-24.65-13.61-17.11-2.76-33.08,7.65-48.52,17.73-13.48,8.79-27.33,17.84-42.14,17.84Z"/>
    </clipPath>
    <linearGradient id="linear-gradient-6" x1="357.2" y1="178.19" x2="452.89" y2="178.19" gradientTransform="translate(-294.13 -33.34)" xlink:href="#linear-gradient"/>
    <clipPath id="clippath-7">
      <path class="cls-5" d="M65.85,187.45c-3.33,0-6.7-.46-10.14-1.48-12.02-3.57-21.8-13.4-29.06-29.21-2.01-4.37-.09-9.54,4.28-11.55,4.37-2.01,9.54-.09,11.55,4.28,5.08,11.05,11.2,17.71,18.2,19.78,10.97,3.26,23.4-4.86,37.79-14.25,17.37-11.33,37.05-24.17,60.82-20.33,12.29,1.99,23.77,8.19,34.12,18.42,3.42,3.38,3.45,8.9.07,12.32-3.38,3.42-8.9,3.45-12.32.07-7.72-7.64-16.01-12.22-24.65-13.61-17.11-2.76-33.08,7.65-48.52,17.73-13.48,8.79-27.33,17.84-42.14,17.84Z"/>
    </clipPath>
    <linearGradient id="linear-gradient-7" x1="374.43" y1="178.19" x2="470.12" y2="178.19" gradientTransform="translate(-311.35 -16.12)" xlink:href="#linear-gradient"/>
    <clipPath id="clippath-8">
      <ellipse class="cls-10" cx="113.69" cy="63.17" rx="46.25" ry="20.28"/>
    </clipPath>
    <clipPath id="clippath-9">
      <path class="cls-10" d="M72.67,63.68c-2.91,0-5.85-.4-8.85-1.29-10.49-3.12-19.03-11.7-25.37-25.5-1.75-3.82-.08-8.33,3.73-10.08,3.81-1.75,8.33-.08,10.08,3.73,4.43,9.65,9.78,15.46,15.89,17.27,9.57,2.84,20.43-4.24,33-12.44,15.16-9.9,32.35-21.11,53.1-17.75,10.73,1.74,20.75,7.15,29.79,16.09,2.99,2.95,3.01,7.77.06,10.75-2.95,2.99-7.77,3.01-10.75.06-6.74-6.67-13.98-10.67-21.52-11.89-14.94-2.41-28.88,6.68-42.36,15.48-11.77,7.68-23.86,15.57-36.79,15.57Z"/>
    </clipPath>
    <linearGradient id="linear-gradient-8" x1="259.95" y1="177.09" x2="343.49" y2="177.09" gradientTransform="translate(-189.7 -135.57)" xlink:href="#linear-gradient"/>
    <clipPath id="clippath-10">
      <path class="cls-10" d="M72.67,76.55c-2.91,0-5.85-.4-8.85-1.29-10.49-3.12-19.03-11.7-25.37-25.5-1.75-3.82-.08-8.33,3.73-10.08,3.81-1.75,8.33-.08,10.08,3.73,4.43,9.65,9.78,15.46,15.89,17.27,9.57,2.84,20.43-4.24,33-12.44,15.16-9.9,32.35-21.11,53.1-17.75,10.73,1.74,20.75,7.15,29.79,16.09,2.99,2.95,3.01,7.77.06,10.75-2.95,2.99-7.77,3.01-10.75.06-6.74-6.67-13.98-10.67-21.52-11.89-14.94-2.41-28.88,6.68-42.36,15.48-11.77,7.68-23.86,15.57-36.79,15.57Z"/>
    </clipPath>
    <linearGradient id="linear-gradient-9" x1="272.81" y1="177.09" x2="356.36" y2="177.09" gradientTransform="translate(-202.57 -122.71)" xlink:href="#linear-gradient"/>
    <clipPath id="clippath-11">
      <path class="cls-10" d="M73.27,89.9c-2.91,0-5.85-.4-8.85-1.29-10.49-3.12-19.03-11.7-25.37-25.5-1.75-3.82-.08-8.33,3.73-10.08,3.81-1.75,8.33-.08,10.08,3.73,4.43,9.65,9.78,15.46,15.89,17.27,9.57,2.84,20.43-4.24,33-12.44,15.16-9.9,32.35-21.11,53.1-17.75,10.73,1.74,20.75,7.15,29.79,16.09,2.99,2.95,3.01,7.77.06,10.75-2.95,2.99-7.77,3.01-10.75.06-6.74-6.67-13.98-10.67-21.52-11.89-14.94-2.41-28.88,6.68-42.36,15.48-11.77,7.68-23.86,15.57-36.79,15.57Z"/>
    </clipPath>
    <linearGradient id="linear-gradient-10" x1="286.17" y1="176.49" x2="369.71" y2="176.49" gradientTransform="translate(-215.33 -108.75)" xlink:href="#linear-gradient"/>
    <clipPath id="clippath-12">
      <path class="cls-10" d="M73.27,103.52c-2.91,0-5.85-.4-8.85-1.29-10.49-3.12-19.03-11.7-25.37-25.5-1.75-3.82-.08-8.33,3.73-10.08,3.81-1.75,8.33-.08,10.08,3.73,4.43,9.65,9.78,15.46,15.89,17.27,9.57,2.84,20.43-4.24,33-12.44,15.16-9.9,32.35-21.11,53.1-17.75,10.73,1.74,20.75,7.15,29.79,16.09,2.99,2.95,3.01,7.77.06,10.75-2.95,2.99-7.77,3.01-10.75.06-6.74-6.67-13.98-10.67-21.52-11.89-14.94-2.41-28.88,6.68-42.36,15.48-11.77,7.68-23.86,15.57-36.79,15.57Z"/>
    </clipPath>
    <linearGradient id="linear-gradient-11" x1="299.78" y1="176.49" x2="383.33" y2="176.49" gradientTransform="translate(-228.94 -95.13)" xlink:href="#linear-gradient"/>
    <clipPath id="clippath-13">
      <path class="cls-10" d="M73.27,117.35c-2.91,0-5.85-.4-8.85-1.29-10.49-3.12-19.03-11.7-25.37-25.5-1.75-3.82-.08-8.33,3.73-10.08,3.81-1.75,8.33-.08,10.08,3.73,4.43,9.65,9.78,15.46,15.89,17.27,9.57,2.84,20.43-4.24,33-12.44,15.16-9.9,32.35-21.11,53.1-17.75,10.73,1.74,20.75,7.15,29.79,16.09,2.99,2.95,3.01,7.77.06,10.75-2.95,2.99-7.77,3.01-10.75.06-6.74-6.67-13.98-10.67-21.52-11.89-14.94-2.41-28.88,6.68-42.36,15.48-11.77,7.68-23.86,15.57-36.79,15.57Z"/>
    </clipPath>
    <linearGradient id="linear-gradient-12" x1="313.62" y1="176.49" x2="397.17" y2="176.49" gradientTransform="translate(-242.78 -81.3)" xlink:href="#linear-gradient"/>
  </defs>
  <g id="Layer_1-2" data-name="Layer 1">
    <g>
      <circle class="cls-11" cx="110.92" cy="110.92" r="110.92"/>
      <g>
        <g class="cls-28">
          <rect class="cls-7" x="44.32" y="-2.23" width="136.25" height="208.49" transform="translate(214.46 -10.42) rotate(90)"/>
        </g>
        <g>
          <ellipse class="cls-19" cx="113.69" cy="63.17" rx="46.25" ry="20.28"/>
          <g class="cls-24">
            <rect class="cls-8" x="70.95" y="-11.11" width="76.56" height="152.14" transform="translate(174.19 -44.27) rotate(90)"/>
          </g>
        </g>
        <g class="cls-20">
          <rect class="cls-12" x="41.12" y="-4.86" width="134.07" height="208.49" transform="translate(207.54 -8.76) rotate(90)"/>
        </g>
        <g class="cls-29">
          <rect class="cls-13" x="38.2" y="-3.62" width="139.9" height="208.49" transform="translate(208.78 -7.53) rotate(90)"/>
        </g>
        <g class="cls-25">
          <rect class="cls-17" x="35.05" y="-2.01" width="146.21" height="208.49" transform="translate(210.39 -5.91) rotate(90)"/>
        </g>
        <g>
          <g class="cls-31">
            <rect class="cls-1" x="63.07" y="23.44" width="95.69" height="208.49" transform="translate(238.61 16.77) rotate(90)"/>
          </g>
          <path class="cls-5" d="M65.85,153.07c-3.33,0-6.7-.46-10.14-1.48-12.02-3.57-21.8-13.4-29.06-29.21-2.01-4.37-.09-9.54,4.28-11.55,4.37-2.01,9.54-.09,11.55,4.28,5.08,11.05,11.2,17.71,18.2,19.78,10.97,3.26,23.4-4.86,37.79-14.25,17.37-11.33,37.05-24.17,60.82-20.33,12.29,1.99,23.77,8.19,34.12,18.42,3.42,3.38,3.45,8.9.07,12.32-3.38,3.42-8.9,3.45-12.32.07-7.72-7.64-16.01-12.22-24.65-13.61-17.11-2.76-33.08,7.65-48.52,17.73-13.48,8.79-27.33,17.84-42.14,17.84Z"/>
        </g>
        <g>
          <g class="cls-22">
            <rect class="cls-2" x="63.07" y="40.6" width="95.69" height="208.49" transform="translate(255.77 33.93) rotate(90)"/>
          </g>
          <path class="cls-5" d="M65.85,170.23c-3.33,0-6.7-.46-10.14-1.48-12.02-3.57-21.8-13.4-29.06-29.21-2.01-4.37-.09-9.54,4.28-11.55,4.37-2.01,9.54-.09,11.55,4.28,5.08,11.05,11.2,17.71,18.2,19.78,10.97,3.26,23.4-4.86,37.79-14.25,17.37-11.33,37.05-24.17,60.82-20.33,12.29,1.99,23.77,8.19,34.12,18.42,3.42,3.38,3.45,8.9.07,12.32-3.38,3.42-8.9,3.45-12.32.07-7.72-7.64-16.01-12.22-24.65-13.61-17.11-2.76-33.08,7.65-48.52,17.73-13.48,8.79-27.33,17.84-42.14,17.84Z"/>
        </g>
        <g>
          <g class="cls-23">
            <rect class="cls-3" x="63.07" y="57.83" width="95.69" height="208.49" transform="translate(272.99 51.15) rotate(90)"/>
          </g>
          <path class="cls-5" d="M65.85,187.45c-3.33,0-6.7-.46-10.14-1.48-12.02-3.57-21.8-13.4-29.06-29.21-2.01-4.37-.09-9.54,4.28-11.55,4.37-2.01,9.54-.09,11.55,4.28,5.08,11.05,11.2,17.71,18.2,19.78,10.97,3.26,23.4-4.86,37.79-14.25,17.37-11.33,37.05-24.17,60.82-20.33,12.29,1.99,23.77,8.19,34.12,18.42,3.42,3.38,3.45,8.9.07,12.32-3.38,3.42-8.9,3.45-12.32.07-7.72-7.64-16.01-12.22-24.65-13.61-17.11-2.76-33.08,7.65-48.52,17.73-13.48,8.79-27.33,17.84-42.14,17.84Z"/>
        </g>
        <g class="cls-30">
          <g>
            <g class="cls-27">
              <rect class="cls-15" x="70.24" y="-49.5" width="83.55" height="182.03" transform="translate(153.54 -70.5) rotate(90)"/>
            </g>
            <g class="cls-32">
              <rect class="cls-14" x="70.24" y="-36.63" width="83.55" height="182.03" transform="translate(166.4 -57.63) rotate(90)"/>
            </g>
            <g class="cls-18">
              <rect class="cls-16" x="70.84" y="-23.27" width="83.55" height="182.03" transform="translate(180.36 -44.87) rotate(90)"/>
            </g>
            <g class="cls-26">
              <rect class="cls-9" x="70.84" y="-9.66" width="83.55" height="182.03" transform="translate(193.97 -31.26) rotate(90)"/>
            </g>
            <g class="cls-21">
              <rect class="cls-6" x="70.84" y="4.18" width="83.55" height="182.03" transform="translate(207.81 -17.42) rotate(90)"/>
            </g>
          </g>
        </g>
        <ellipse class="cls-4" cx="113.69" cy="63.74" rx="46.25" ry="20.28"/>
      </g>
    </g>
  </g>
</svg>